<svg xmlns="http://www.w3.org/2000/svg" viewBox="0 0 162 212" width="37.5" height="50"><path class="node" fill-opacity="0" stroke="#4791FF" stroke-width="4.91" d="M128.92 171.94c0 3.82-3.09 6.92-6.89 6.92s-6.89-3.1-6.89-6.92 3.09-6.92 6.89-6.92 6.89 3.1 6.89 6.92zm-81.38-52.79c0 3.82-3.09 6.92-6.89 6.92-3.81 0-6.9-3.1-6.9-6.92s3.09-6.92 6.9-6.92c3.8 0 6.89 3.1 6.89 6.92zm27 79.9c0 3.82-3.08 6.92-6.89 6.92-3.8 0-6.89-3.1-6.89-6.92s3.09-6.92 6.89-6.92c3.81 0 6.89 3.1 6.89 6.92zM74.5 39.98c0 3.82-3.09 6.92-6.89 6.92-3.81 0-6.9-3.1-6.9-6.92s3.09-6.92 6.9-6.92c3.8 0 6.89 3.1 6.89 6.92zm54.57 0c0 3.82-3.08 6.92-6.89 6.92-3.8 0-6.89-3.1-6.89-6.92s3.09-6.92 6.89-6.92c3.81 0 6.89 3.1 6.89 6.92zm-26.99-26.93c0 3.82-3.09 6.92-6.89 6.92-3.81 0-6.9-3.1-6.9-6.92s3.09-6.92 6.9-6.92c3.8 0 6.89 3.1 6.89 6.92z"/><path class="line" fill="#4791FF" d="M102.55 16.7l16.48 16.11-4.02 3.93-16.48-16.11 4.02-3.93z"/><path class="node" fill-opacity="0" stroke="#4791FF" stroke-width="4.91" d="M128.69 13.05c0 3.82-3.09 6.92-6.89 6.92-3.81 0-6.9-3.1-6.9-6.92s3.09-6.92 6.9-6.92c3.8 0 6.89 3.1 6.89 6.92zm26.99 26.93c0 3.82-3.09 6.92-6.89 6.92s-6.89-3.1-6.89-6.92 3.09-6.92 6.89-6.92 6.89 3.1 6.89 6.92z"/><path class="line" fill="#4791FF" d="M129.16 16.7l16.48 16.11-4.02 3.93-16.48-16.11 4.02-3.93z"/><path class="node" fill-opacity="0" stroke="#4791FF" stroke-width="4.91" d="M19.66 66.18c0 3.82-3.09 6.92-6.89 6.92-3.81 0-6.89-3.1-6.89-6.92s3.08-6.92 6.89-6.92c3.8 0 6.89 3.1 6.89 6.92z"/><path class="line" fill="#4791FF" d="M9.9 73.67h5.6v11.18H9.9V73.67z"/><path class="node" fill-opacity="0" stroke="#4791FF" stroke-width="4.91" d="M19.66 92.66c0 3.82-3.09 6.92-6.89 6.92-3.81 0-6.89-3.1-6.89-6.92 0-3.81 3.08-6.91 6.89-6.91 3.8 0 6.89 3.1 6.89 6.91zm95.43 106.15c0 3.82 3.09 6.92 6.9 6.92 3.8 0 6.89-3.1 6.89-6.92s-3.09-6.92-6.89-6.92c-3.81 0-6.9 3.1-6.9 6.92zm27-26.93c0 3.81 3.09 6.91 6.89 6.91 3.81 0 6.9-3.1 6.9-6.91 0-3.82-3.09-6.92-6.9-6.92-3.8 0-6.89 3.1-6.89 6.92z"/><path class="line" fill="#4791FF" d="M141.62 175.52l-16.49 16.12 4.02 3.93 16.49-16.12-4.02-3.93z"/><path class="node" fill-opacity="0" stroke="#4791FF" stroke-width="4.91" d="M101.69 172.28c0 3.82-3.08 6.92-6.89 6.92-3.8 0-6.89-3.1-6.89-6.92s3.09-6.92 6.89-6.92c3.81 0 6.89 3.1 6.89 6.92z"/><path class="line" fill="#4791FF" d="M91.93 179.77h5.6v11.19h-5.6v-11.19z"/><path class="node" fill-opacity="0" stroke="#4791FF" stroke-width="4.91" d="M101.69 198.77c0 3.81-3.08 6.91-6.89 6.91-3.8 0-6.89-3.1-6.89-6.91 0-3.82 3.09-6.92 6.89-6.92 3.81 0 6.89 3.1 6.89 6.92zm-81.36-53.42c0 3.81-3.09 6.91-6.89 6.91-3.81 0-6.89-3.1-6.89-6.91 0-3.82 3.08-6.92 6.89-6.92 3.8 0 6.89 3.1 6.89 6.92zm27 26.93c0 3.82-3.09 6.92-6.9 6.92-3.8 0-6.89-3.1-6.89-6.92s3.09-6.92 6.89-6.92c3.81 0 6.9 3.1 6.9 6.92z"/><path class="line" fill="#4791FF" d="M20.8 149l16.49 16.11-4.02 3.93-16.49-16.11L20.8 149z"/><path class="node" fill-opacity="0" stroke="#4791FF" stroke-width="4.91" d="M74.7 13.2c0 3.82-3.09 6.92-6.89 6.92-3.81 0-6.9-3.1-6.9-6.92s3.09-6.92 6.9-6.92c3.8 0 6.89 3.1 6.89 6.92zm26.99 26.93c0 3.82-3.08 6.92-6.89 6.92-3.8 0-6.89-3.1-6.89-6.92s3.09-6.91 6.89-6.91c3.81 0 6.89 3.09 6.89 6.91z"/><path class="line" fill="#4791FF" d="M75.17 16.85l16.48 16.11-4.02 3.93-16.48-16.11 4.02-3.93z"/><path class="node" fill-opacity="0" stroke="#4791FF" stroke-width="4.91" d="M33.69 40.12c0 3.81 3.09 6.91 6.89 6.91 3.81 0 6.89-3.1 6.89-6.91 0-3.82-3.08-6.92-6.89-6.92-3.8 0-6.89 3.1-6.89 6.92z"/><path class="line" fill="#4791FF" d="M60.21 16.83L43.73 32.94l4.02 3.93 16.48-16.11-4.02-3.93z"/><path class="node" fill-opacity="0" stroke="#4791FF" stroke-width="4.91" d="M47.56 199.21c0-3.81-3.09-6.91-6.9-6.91-3.8 0-6.89 3.1-6.89 6.91 0 3.82 3.09 6.92 6.89 6.92 3.81 0 6.9-3.1 6.9-6.92zm26.99-26.93c0-3.82-3.09-6.92-6.89-6.92-3.81 0-6.89 3.1-6.89 6.92s3.08 6.92 6.89 6.92c3.8 0 6.89-3.1 6.89-6.92z"/><path class="line" fill="#4791FF" d="M48.03 195.57l16.48-16.12-4.02-3.93-16.48 16.12 4.02 3.93z"/><path class="node" fill-opacity="0" stroke="#4791FF" stroke-width="4.91" d="M6.55 172.3c0-3.82 3.08-6.92 6.89-6.92 3.8 0 6.89 3.1 6.89 6.92 0 3.81-3.09 6.91-6.89 6.91-3.81 0-6.89-3.1-6.89-6.91z"/><path class="line" fill="#4791FF" d="M33.07 195.58l-16.49-16.11 4.03-3.93 16.48 16.11-4.02 3.93z"/><path class="node" fill-opacity="0" stroke="#4791FF" stroke-width="4.91" d="M13.11 46.46c3.91 0 7.08-3.01 7.08-6.73 0-3.72-3.17-6.74-7.08-6.74-3.9 0-7.07 3.02-7.07 6.74s3.17 6.73 7.07 6.73zm27.56 26.39c3.9 0 7.08-3.02 7.08-6.74s-3.18-6.74-7.08-6.74c-3.91 0-7.08 3.02-7.08 6.74s3.17 6.74 7.08 6.74z"/><path class="line" fill="#4791FF" d="M16.85 46.93l16.48 16.11 4.02-3.93-16.48-16.12-4.02 3.94z"/><path class="node" fill-opacity="0" stroke="#4791FF" stroke-width="4.91" d="M40.65 6.38c3.91 0 7.08 3.02 7.08 6.74 0 3.71-3.17 6.73-7.08 6.73-3.9 0-7.07-3.02-7.07-6.73 0-3.72 3.17-6.74 7.07-6.74z"/><path class="line" fill="#4791FF" d="M16.83 32.3l16.48-16.11 4.03 3.93-16.49 16.11-4.02-3.93z"/><path class="node" fill-opacity="0" stroke="#4791FF" stroke-width="4.91" d="M13.18 125.88c3.9 0 7.07-3.02 7.07-6.74s-3.17-6.74-7.07-6.74c-3.91 0-7.08 3.02-7.08 6.74s3.17 6.74 7.08 6.74zm27.55 26.38c3.91 0 7.08-3.01 7.08-6.73 0-3.72-3.17-6.74-7.08-6.74-3.9 0-7.07 3.02-7.07 6.74s3.17 6.73 7.07 6.73z"/><path class="line" fill="#4791FF" d="M16.91 126.34l16.48 16.11 4.03-3.93-16.49-16.11-4.02 3.93z"/><path class="node" fill-opacity="0" stroke="#4791FF" stroke-width="4.91" d="M40.72 85.79c3.9 0 7.07 3.02 7.07 6.74s-3.17 6.74-7.07 6.74c-3.91 0-7.08-3.02-7.08-6.74s3.17-6.74 7.08-6.74z"/><path class="line" fill="#4791FF" d="M16.89 111.72L33.38 95.6l4.02 3.93-16.49 16.12-4.02-3.93z"/></svg>