<?xml version="1.0" encoding="UTF-8" standalone="no"?>
<!DOCTYPE svg PUBLIC "-//W3C//DTD SVG 1.1//EN" "http://www.w3.org/Graphics/SVG/1.1/DTD/svg11.dtd">
<svg version="1.1" xmlns="http://www.w3.org/2000/svg" xmlns:xlink="http://www.w3.org/1999/xlink" preserveAspectRatio="xMidYMid meet" viewBox="0 0 162 212" width="150" height="200"><defs><path d="M129.07 39.98C129.07 43.8 125.99 46.9 122.18 46.9C118.38 46.9 115.29 43.8 115.29 39.98C115.29 36.16 118.38 33.06 122.18 33.06C125.99 33.06 129.07 36.16 129.07 39.98Z" id="a1NEb4NcmE"></path><path d="M102.08 13.05C102.08 16.87 98.99 19.97 95.19 19.97C91.38 19.97 88.29 16.87 88.29 13.05C88.29 9.23 91.38 6.13 95.19 6.13C98.99 6.13 102.08 9.23 102.08 13.05Z" id="aWXNobinG"></path><path d="M102.55 16.7L119.03 32.81L115.01 36.74L98.53 20.63L102.55 16.7Z" id="c1BhAdBNdh"></path><path d="M128.69 13.05C128.69 16.87 125.6 19.97 121.8 19.97C117.99 19.97 114.9 16.87 114.9 13.05C114.9 9.23 117.99 6.13 121.8 6.13C125.6 6.13 128.69 9.23 128.69 13.05Z" id="d2wsuLYnF4"></path><path d="M155.68 39.98C155.68 43.8 152.59 46.9 148.79 46.9C144.99 46.9 141.9 43.8 141.9 39.98C141.9 36.16 144.99 33.06 148.79 33.06C152.59 33.06 155.68 36.16 155.68 39.98Z" id="d3q92uZGLe"></path><path d="M129.16 16.7L145.64 32.81L141.62 36.74L125.14 20.63L129.16 16.7Z" id="a74GhZ3yQq"></path><path d="M19.66 66.18C19.66 70 16.57 73.1 12.77 73.1C8.96 73.1 5.88 70 5.88 66.18C5.88 62.36 8.96 59.26 12.77 59.26C16.57 59.26 19.66 62.36 19.66 66.18Z" id="a2z1xQU7Nl"></path><path d="M9.9 73.67L15.5 73.67L15.5 84.85L9.9 84.85L9.9 73.67Z" id="c9QP3ah0N"></path><path d="M19.66 92.66C19.66 96.48 16.57 99.58 12.77 99.58C8.96 99.58 5.88 96.48 5.88 92.66C5.88 88.85 8.96 85.75 12.77 85.75C16.57 85.75 19.66 88.85 19.66 92.66Z" id="d4N7A19cP"></path><path d="M47.56 199.21C47.56 195.4 44.47 192.3 40.66 192.3C36.86 192.3 33.77 195.4 33.77 199.21C33.77 203.03 36.86 206.13 40.66 206.13C44.47 206.13 47.56 203.03 47.56 199.21Z" id="b49pVCHoml"></path><path d="M74.55 172.28C74.55 168.46 71.46 165.36 67.66 165.36C63.85 165.36 60.77 168.46 60.77 172.28C60.77 176.1 63.85 179.2 67.66 179.2C71.46 179.2 74.55 176.1 74.55 172.28Z" id="f3aA9BRVAX"></path><path d="M48.03 195.57L64.51 179.45L60.49 175.52L44.01 191.64L48.03 195.57Z" id="a1v5552yg"></path><path d="M6.55 172.3C6.55 168.48 9.63 165.38 13.44 165.38C17.24 165.38 20.33 168.48 20.33 172.3C20.33 176.11 17.24 179.21 13.44 179.21C9.63 179.21 6.55 176.11 6.55 172.3Z" id="e3H4kr0EkQ"></path><path d="M33.07 195.58L16.58 179.47L20.61 175.54L37.09 191.65L33.07 195.58Z" id="bTR8rImiD"></path><path d="M20.33 145.35C20.33 149.16 17.24 152.26 13.44 152.26C9.63 152.26 6.55 149.16 6.55 145.35C6.55 141.53 9.63 138.43 13.44 138.43C17.24 138.43 20.33 141.53 20.33 145.35Z" id="bdofccJV"></path><path d="M47.33 172.28C47.33 176.1 44.24 179.2 40.43 179.2C36.63 179.2 33.54 176.1 33.54 172.28C33.54 168.46 36.63 165.36 40.43 165.36C44.24 165.36 47.33 168.46 47.33 172.28Z" id="dDRv4UzPm"></path><path d="M20.8 149L37.29 165.11L33.27 169.04L16.78 152.93L20.8 149Z" id="c2OlTUq6KL"></path><path d="M74.7 13.2C74.7 17.02 71.61 20.12 67.81 20.12C64 20.12 60.91 17.02 60.91 13.2C60.91 9.38 64 6.28 67.81 6.28C71.61 6.28 74.7 9.38 74.7 13.2Z" id="bGCAw6xPh"></path><path d="M101.69 40.13C101.69 43.95 98.61 47.05 94.8 47.05C91 47.05 87.91 43.95 87.91 40.13C87.91 36.31 91 33.22 94.8 33.22C98.61 33.22 101.69 36.31 101.69 40.13Z" id="h8SM1BHkZ"></path><path d="M75.17 16.85L91.65 32.96L87.63 36.89L71.15 20.78L75.17 16.85Z" id="a56Zp8sZ7"></path><path d="M33.69 40.12C33.69 43.93 36.78 47.03 40.58 47.03C44.39 47.03 47.47 43.93 47.47 40.12C47.47 36.3 44.39 33.2 40.58 33.2C36.78 33.2 33.69 36.3 33.69 40.12Z" id="es9ojl2UA"></path><path d="M60.21 16.83L43.73 32.94L47.75 36.87L64.23 20.76L60.21 16.83Z" id="c2HnWcEyF"></path><path d="M13.11 46.46C17.02 46.46 20.19 43.45 20.19 39.73C20.19 36.01 17.02 32.99 13.11 32.99C9.21 32.99 6.04 36.01 6.04 39.73C6.04 43.45 9.21 46.46 13.11 46.46Z" id="b2TdnquQqf"></path><path d="M40.67 72.85C44.57 72.85 47.75 69.83 47.75 66.11C47.75 62.39 44.57 59.37 40.67 59.37C36.76 59.37 33.59 62.39 33.59 66.11C33.59 69.83 36.76 72.85 40.67 72.85Z" id="h14bVSLw9T"></path><path d="M16.85 46.93L33.33 63.04L37.35 59.11L20.87 42.99L16.85 46.93Z" id="bYTcw9bpm"></path><path d="M40.65 6.38C44.56 6.38 47.73 9.4 47.73 13.12C47.73 16.83 44.56 19.85 40.65 19.85C36.75 19.85 33.58 16.83 33.58 13.12C33.58 9.4 36.75 6.38 40.65 6.38Z" id="i91njmfQ8T"></path><path d="M16.83 32.3L33.31 16.19L37.34 20.12L20.85 36.23L16.83 32.3Z" id="a1qmp8QkuI"></path><path d="M74.5 39.98C74.5 43.8 71.41 46.9 67.61 46.9C63.8 46.9 60.71 43.8 60.71 39.98C60.71 36.16 63.8 33.06 67.61 33.06C71.41 33.06 74.5 36.16 74.5 39.98Z" id="e2Jrclmw5V"></path><path d="M101.69 172.28C101.69 176.1 98.61 179.2 94.8 179.2C91 179.2 87.91 176.1 87.91 172.28C87.91 168.46 91 165.36 94.8 165.36C98.61 165.36 101.69 168.46 101.69 172.28Z" id="a1Pz1SQSA"></path><path d="M91.93 179.77L97.53 179.77L97.53 190.96L91.93 190.96L91.93 179.77Z" id="bp3UlfYEJ"></path><path d="M101.69 198.77C101.69 202.58 98.61 205.68 94.8 205.68C91 205.68 87.91 202.58 87.91 198.77C87.91 194.95 91 191.85 94.8 191.85C98.61 191.85 101.69 194.95 101.69 198.77Z" id="k1tpaVHM"></path><path d="M128.92 171.94C128.92 175.76 125.83 178.86 122.03 178.86C118.23 178.86 115.14 175.76 115.14 171.94C115.14 168.12 118.23 165.02 122.03 165.02C125.83 165.02 128.92 168.12 128.92 171.94Z" id="b3BHjsGyvY"></path><path d="M47.54 119.15C47.54 122.97 44.45 126.07 40.65 126.07C36.84 126.07 33.75 122.97 33.75 119.15C33.75 115.33 36.84 112.23 40.65 112.23C44.45 112.23 47.54 115.33 47.54 119.15Z" id="c7JwN3UQ2"></path><path d="M74.54 199.05C74.54 202.87 71.46 205.97 67.65 205.97C63.85 205.97 60.76 202.87 60.76 199.05C60.76 195.23 63.85 192.13 67.65 192.13C71.46 192.13 74.54 195.23 74.54 199.05Z" id="a1raeeYSrc"></path><path d="M13.18 125.88C17.08 125.88 20.25 122.86 20.25 119.14C20.25 115.42 17.08 112.4 13.18 112.4C9.27 112.4 6.1 115.42 6.1 119.14C6.1 122.86 9.27 125.88 13.18 125.88Z" id="a5KdVdzSZe"></path><path d="M40.73 152.26C44.64 152.26 47.81 149.25 47.81 145.53C47.81 141.81 44.64 138.79 40.73 138.79C36.83 138.79 33.66 141.81 33.66 145.53C33.66 149.25 36.83 152.26 40.73 152.26Z" id="aap6oKzMgF"></path><path d="M16.91 126.34L33.39 142.45L37.42 138.52L20.93 122.41L16.91 126.34Z" id="h8X5AYz7g"></path><path d="M40.72 85.79C44.62 85.79 47.79 88.81 47.79 92.53C47.79 96.25 44.62 99.27 40.72 99.27C36.81 99.27 33.64 96.25 33.64 92.53C33.64 88.81 36.81 85.79 40.72 85.79Z" id="e5cK3LMToR"></path><path d="M16.89 111.72L33.38 95.6L37.4 99.53L20.91 115.65L16.89 111.72Z" id="a1bES1ackk"></path><path d="M115.09 198.81C115.09 202.63 118.18 205.73 121.99 205.73C125.79 205.73 128.88 202.63 128.88 198.81C128.88 194.99 125.79 191.89 121.99 191.89C118.18 191.89 115.09 194.99 115.09 198.81Z" id="dunOumaqp"></path><path d="M142.09 171.88C142.09 175.69 145.18 178.79 148.98 178.79C152.79 178.79 155.88 175.69 155.88 171.88C155.88 168.06 152.79 164.96 148.98 164.96C145.18 164.96 142.09 168.06 142.09 171.88Z" id="aDDCLMcV2"></path><path d="M141.62 175.52L125.13 191.64L129.15 195.57L145.64 179.45L141.62 175.52Z" id="cxyYnghZk"></path></defs><g><g><g><g><use xlink:href="#a1NEb4NcmE" opacity="1" fill-opacity="0" stroke="#5e9eff" stroke-width="4.91" stroke-opacity="1"></use></g></g><g><g><use xlink:href="#aWXNobinG" opacity="1" fill-opacity="0" stroke="#5e9eff" stroke-width="4.91" stroke-opacity="1"></use></g></g><g><use xlink:href="#c1BhAdBNdh" opacity="1" fill="#5e9eff" fill-opacity="1"></use></g></g><g><g><g><use xlink:href="#d2wsuLYnF4" opacity="1" fill-opacity="0" stroke="#5e9eff" stroke-width="4.91" stroke-opacity="1"></use></g></g><g><g><use xlink:href="#d3q92uZGLe" opacity="1" fill-opacity="0" stroke="#5e9eff" stroke-width="4.91" stroke-opacity="1"></use></g></g><g><use xlink:href="#a74GhZ3yQq" opacity="1" fill="#5e9eff" fill-opacity="1"></use></g></g><g><g><g><use xlink:href="#a2z1xQU7Nl" opacity="1" fill-opacity="0" stroke="#5e9eff" stroke-width="4.91" stroke-opacity="1"></use></g></g><g><use xlink:href="#c9QP3ah0N" opacity="1" fill="#5e9eff" fill-opacity="1"></use></g><g><g><use xlink:href="#d4N7A19cP" opacity="1" fill-opacity="0" stroke="#5e9eff" stroke-width="4.91" stroke-opacity="1"></use></g></g></g><g><g><g><use xlink:href="#b49pVCHoml" opacity="1" fill-opacity="0" stroke="#5e9eff" stroke-width="4.91" stroke-opacity="1"></use></g></g><g><g><use xlink:href="#f3aA9BRVAX" opacity="1" fill-opacity="0" stroke="#5e9eff" stroke-width="4.91" stroke-opacity="1"></use></g></g><g><use xlink:href="#a1v5552yg" opacity="1" fill="#5e9eff" fill-opacity="1"></use></g><g><g><use xlink:href="#e3H4kr0EkQ" opacity="1" fill-opacity="0" stroke="#5e9eff" stroke-width="4.91" stroke-opacity="1"></use></g></g><g><use xlink:href="#bTR8rImiD" opacity="1" fill="#5e9eff" fill-opacity="1"></use></g></g><g><g><g><use xlink:href="#bdofccJV" opacity="1" fill-opacity="0" stroke="#5e9eff" stroke-width="4.91" stroke-opacity="1"></use></g></g><g><g><use xlink:href="#dDRv4UzPm" opacity="1" fill-opacity="0" stroke="#5e9eff" stroke-width="4.91" stroke-opacity="1"></use></g></g><g><use xlink:href="#c2OlTUq6KL" opacity="1" fill="#5e9eff" fill-opacity="1"></use></g></g><g><g><g><use xlink:href="#bGCAw6xPh" opacity="1" fill-opacity="0" stroke="#5e9eff" stroke-width="4.91" stroke-opacity="1"></use></g></g><g><g><use xlink:href="#h8SM1BHkZ" opacity="1" fill-opacity="0" stroke="#5e9eff" stroke-width="4.91" stroke-opacity="1"></use></g></g><g><use xlink:href="#a56Zp8sZ7" opacity="1" fill="#5e9eff" fill-opacity="1"></use></g><g><g><use xlink:href="#es9ojl2UA" opacity="1" fill-opacity="0" stroke="#5e9eff" stroke-width="4.91" stroke-opacity="1"></use></g></g><g><use xlink:href="#c2HnWcEyF" opacity="1" fill="#5e9eff" fill-opacity="1"></use></g></g><g><g><g><use xlink:href="#b2TdnquQqf" opacity="1" fill-opacity="0" stroke="#5e9eff" stroke-width="4.91" stroke-opacity="1"></use></g></g><g><g><use xlink:href="#h14bVSLw9T" opacity="1" fill-opacity="0" stroke="#5e9eff" stroke-width="4.91" stroke-opacity="1"></use></g></g><g><use xlink:href="#bYTcw9bpm" opacity="1" fill="#5e9eff" fill-opacity="1"></use></g><g><g><use xlink:href="#i91njmfQ8T" opacity="1" fill-opacity="0" stroke="#5e9eff" stroke-width="4.91" stroke-opacity="1"></use></g></g><g><use xlink:href="#a1qmp8QkuI" opacity="1" fill="#5e9eff" fill-opacity="1"></use></g></g><g><g><use xlink:href="#e2Jrclmw5V" opacity="1" fill-opacity="0" stroke="#5e9eff" stroke-width="4.91" stroke-opacity="1"></use></g></g><g><g><g><use xlink:href="#a1Pz1SQSA" opacity="1" fill-opacity="0" stroke="#5e9eff" stroke-width="4.91" stroke-opacity="1"></use></g></g><g><use xlink:href="#bp3UlfYEJ" opacity="1" fill="#5e9eff" fill-opacity="1"></use></g><g><g><use xlink:href="#k1tpaVHM" opacity="1" fill-opacity="0" stroke="#5e9eff" stroke-width="4.91" stroke-opacity="1"></use></g></g></g><g><g><use xlink:href="#b3BHjsGyvY" opacity="1" fill-opacity="0" stroke="#5e9eff" stroke-width="4.91" stroke-opacity="1"></use></g></g><g><g><use xlink:href="#c7JwN3UQ2" opacity="1" fill-opacity="0" stroke="#5e9eff" stroke-width="4.91" stroke-opacity="1"></use></g></g><g><g><use xlink:href="#a1raeeYSrc" opacity="1" fill-opacity="0" stroke="#5e9eff" stroke-width="4.91" stroke-opacity="1"></use></g></g><g><g><g><use xlink:href="#a5KdVdzSZe" opacity="1" fill-opacity="0" stroke="#5e9eff" stroke-width="4.91" stroke-opacity="1"></use></g></g><g><g><use xlink:href="#aap6oKzMgF" opacity="1" fill-opacity="0" stroke="#5e9eff" stroke-width="4.91" stroke-opacity="1"></use></g></g><g><use xlink:href="#h8X5AYz7g" opacity="1" fill="#5e9eff" fill-opacity="1"></use></g><g><g><use xlink:href="#e5cK3LMToR" opacity="1" fill-opacity="0" stroke="#5e9eff" stroke-width="4.91" stroke-opacity="1"></use></g></g><g><use xlink:href="#a1bES1ackk" opacity="1" fill="#5e9eff" fill-opacity="1"></use></g></g><g><g><g><use xlink:href="#dunOumaqp" opacity="1" fill-opacity="0" stroke="#5e9eff" stroke-width="4.91" stroke-opacity="1"></use></g></g><g><g><use xlink:href="#aDDCLMcV2" opacity="1" fill-opacity="0" stroke="#5e9eff" stroke-width="4.91" stroke-opacity="1"></use></g></g><g><use xlink:href="#cxyYnghZk" opacity="1" fill="#5e9eff" fill-opacity="1"></use></g></g></g></svg>