<svg version="1.1" id="Capa_1" xmlns="http://www.w3.org/2000/svg" x="0" y="0" viewBox="0 0 174.2 174.2" xml:space="preserve"><defs><style>.cls-1{fill:#fff}</style></defs><path class="cls-1" d="M169.3 15.7c2.7 0 5 2.2 5 4.9v.6c0 2.7-1.9 6.1-4.1 7.6L91.2 86c-2.3 1.5-6 1.5-8.2 0L4.1 28.8C1.9 27.3 0 23.9 0 21.2v-.7c0-2.7 2.2-4.9 5-4.9l164.3.1z"/><path class="cls-1" d="M83.1 103.1c2.2 1.6 5.8 1.6 8 0l79.1-56.5c2.2-1.6 4-.7 4 2v102c0 2.7-2.2 4.9-5 4.9H5c-2.7 0-5-2.2-5-4.9v-102c0-2.7 1.8-3.6 4-2l79.1 56.5z"/></svg>