<svg id="Layer_1" data-name="Layer 1" xmlns="http://www.w3.org/2000/svg" viewBox="0 0 42.27 36"><defs><style>.cls-1{fill:#fff}</style></defs><path class="cls-1" d="M40.27 29.05a.64.64 0 0 0 .64-.68c0-.48-.29-.71-.88-.71h-1v2.51h.36v-1.09h.45l.69 1.08H41l-.74-1.12zm-.42-.25h-.42V28H40c.28 0 .59 0 .59.4s-.35.4-.73.4z"/><path class="cls-1" d="M39.9 26.55a2.37 2.37 0 1 0 2.37 2.37 2.35 2.35 0 0 0-2.37-2.37zm0 4.43a2.06 2.06 0 1 1 2-2.06 2 2 0 0 1-2 2.08zM33.34 0H2.66A2.63 2.63 0 0 0 0 2.6v30.8A2.63 2.63 0 0 0 2.66 36h30.68A2.63 2.63 0 0 0 36 33.4V2.6A2.63 2.63 0 0 0 33.34 0zM10.68 30.68H5.33V13.5h5.34zM8 11.15a3.1 3.1 0 1 1 3.09-3.1A3.1 3.1 0 0 1 8 11.15zm22.68 19.53h-5.34v-8.36c0-2 0-4.56-2.77-4.56s-3.2 2.17-3.2 4.41v8.5H14V13.5h5.12v2.35h.07a5.61 5.61 0 0 1 5.05-2.77c5.41 0 6.41 3.56 6.41 8.18z"/></svg>